<svg xmlns="http://www.w3.org/2000/svg" xmlns:xlink="http://www.w3.org/1999/xlink" style="display:none">
  <!-- React Icon -->
  <symbol id="react" viewBox="0 0 569 512">
    <g fill="none" fill-rule="evenodd">
      <g transform="translate(-227, -256)" fill="#58C4DC" fill-rule="nonzero">
        <g transform="translate(227, 256)">
          <path d="M285.5,201 C255.400481,201 231,225.400481 231,255.5 C231,285.599519 255.400481,310 285.5,310 C315.599519,310 340,285.599519 340,255.5 C340,225.400481 315.599519,201 285.5,201" id="Path"></path>
          <path d="M568.959856,255.99437 C568.959856,213.207656 529.337802,175.68144 466.251623,150.985214 C467.094645,145.423543 467.85738,139.922107 468.399323,134.521063 C474.621631,73.0415145 459.808523,28.6686204 426.709856,9.5541429 C389.677085,-11.8291748 337.36955,3.69129898 284.479928,46.0162134 C231.590306,3.69129898 179.282771,-11.8291748 142.25,9.5541429 C109.151333,28.6686204 94.3382249,73.0415145 100.560533,134.521063 C101.102476,139.922107 101.845139,145.443621 102.708233,151.02537 C97.4493791,153.033193 92.2908847,155.161486 87.3331099,157.39017 C31.0111824,182.708821 0,217.765415 0,255.99437 C0,298.781084 39.6220545,336.307301 102.708233,361.003527 C101.845139,366.565197 101.102476,372.066633 100.560533,377.467678 C94.3382249,438.947226 109.151333,483.32012 142.25,502.434597 C153.629683,508.887578 166.52439,512.186771 179.603923,511.991836 C210.956328,511.991836 247.567589,495.487529 284.479928,465.972527 C321.372196,495.487529 358.003528,511.991836 389.396077,511.991836 C402.475265,512.183856 415.36922,508.884856 426.75,502.434597 C459.848667,483.32012 474.661775,438.947226 468.439467,377.467678 C467.897524,372.066633 467.134789,366.565197 466.291767,361.003527 C529.377946,336.347457 569,298.761006 569,255.99437 M389.155214,27.1025182 C397.565154,26.899606 405.877839,28.9368502 413.241569,33.0055186 C436.223966,46.2772304 446.540955,82.2775015 441.522965,131.770345 C441.181741,135.143488 440.780302,138.556788 440.298575,141.990165 C414.066922,134.08804 387.205771,128.452154 360.010724,125.144528 C343.525021,103.224055 325.192524,82.7564475 305.214266,63.9661533 C336.586743,39.7116483 366.032313,27.1025182 389.135142,27.1025182 M378.356498,310.205598 C368.204912,327.830733 357.150626,344.919965 345.237759,361.405091 C325.045049,363.479997 304.758818,364.51205 284.459856,364.497299 C264.167589,364.51136 243.888075,363.479308 223.702025,361.405091 C211.820914,344.919381 200.80007,327.83006 190.683646,310.205598 C180.532593,292.629285 171.306974,274.534187 163.044553,255.99437 C171.306974,237.454554 180.532593,219.359455 190.683646,201.783142 C200.784121,184.229367 211.770999,167.201087 223.601665,150.764353 C243.824636,148.63809 264.145559,147.579168 284.479928,147.591877 C304.772146,147.579725 325.051559,148.611772 345.237759,150.68404 C357.109048,167.14607 368.136094,184.201112 378.27621,201.783142 C388.419418,219.363718 397.644825,237.458403 405.915303,255.99437 C397.644825,274.530337 388.419418,292.625022 378.27621,310.205598 M419.724813,290.127366 C426.09516,307.503536 431.324985,325.277083 435.380944,343.334682 C417.779633,348.823635 399.836793,353.149774 381.668372,356.285142 C388.573127,345.871232 395.263781,335.035679 401.740334,323.778483 C408.143291,312.655143 414.144807,301.431411 419.805101,290.207679 M246.363271,390.377981 C258.848032,391.140954 271.593728,391.582675 284.5,391.582675 C297.406272,391.582675 310.232256,391.140954 322.737089,390.377981 C310.880643,404.583418 298.10766,417.997563 284.5,430.534446 C270.921643,417.999548 258.18192,404.585125 246.363271,390.377981 Z M187.311556,356.244986 C169.137286,353.123646 151.187726,348.810918 133.578912,343.334682 C137.618549,325.305649 142.828222,307.559058 149.174827,290.207679 C154.754833,301.431411 160.736278,312.655143 167.239594,323.778483 C173.74291,334.901824 180.467017,345.864539 187.311556,356.285142 M149.174827,221.760984 C142.850954,204.473938 137.654787,186.794745 133.619056,168.834762 C151.18418,163.352378 169.085653,159.013101 187.211197,155.844146 C180.346585,166.224592 173.622478,176.986525 167.139234,188.210257 C160.65599,199.433989 154.734761,210.517173 149.074467,221.760984 M322.616657,121.590681 C310.131896,120.827708 297.3862,120.385987 284.379568,120.385987 C271.479987,120.385987 258.767744,120.787552 246.242839,121.590681 C258.061488,107.383537 270.801211,93.9691137 284.379568,81.4342157 C297.99241,93.9658277 310.765727,107.380324 322.616657,121.590681 Z M401.70019,188.210257 C395.196875,176.939676 388.472767,166.09743 381.527868,155.68352 C399.744224,158.819049 417.734224,163.151949 435.380944,168.654058 C431.331963,186.680673 426.122466,204.426664 419.785029,221.781062 C414.205023,210.55733 408.203506,199.333598 401.720262,188.230335 M127.517179,131.790423 C122.438973,82.3176579 132.816178,46.2973086 155.778503,33.0255968 C163.144699,28.9632474 171.455651,26.9264282 179.864858,27.1225964 C202.967687,27.1225964 232.413257,39.7317265 263.785734,63.9862316 C243.794133,82.7898734 225.448298,103.270812 208.949132,125.204763 C181.761691,128.528025 154.90355,134.14313 128.661281,141.990165 C128.199626,138.556788 127.778115,135.163566 127.456963,131.790423 M98.4529773,182.106474 C101.54406,180.767925 104.695358,179.429376 107.906872,178.090828 C114.220532,204.735668 122.781793,230.7969 133.498624,255.99437 C122.761529,281.241316 114.193296,307.357063 107.8868,334.058539 C56.7434387,313.076786 27.0971497,284.003505 27.0971497,255.99437 C27.0971497,229.450947 53.1907013,202.526037 98.4529773,182.106474 Z M155.778503,478.963143 C132.816178,465.691432 122.438973,429.671082 127.517179,380.198317 C127.838331,376.825174 128.259842,373.431953 128.721497,369.978497 C154.953686,377.878517 181.814655,383.514365 209.009348,386.824134 C225.500295,408.752719 243.832321,429.233234 263.805806,448.042665 C220.069,481.834331 180.105722,492.97775 155.838719,478.963143 M441.502893,380.198317 C446.520883,429.691161 436.203894,465.691432 413.221497,478.963143 C388.974566,493.017906 348.991216,481.834331 305.274481,448.042665 C325.241364,429.232737 343.566681,408.752215 360.050868,386.824134 C387.245915,383.516508 414.107066,377.880622 440.338719,369.978497 C440.820446,373.431953 441.221885,376.825174 441.563109,380.198317 M461.193488,334.018382 C454.869166,307.332523 446.294494,281.231049 435.561592,255.99437 C446.289797,230.744081 454.857778,204.629101 461.173416,177.930202 C512.216417,198.911955 541.942994,227.985236 541.942994,255.99437 C541.942994,284.003505 512.296705,313.076786 461.153344,334.058539" id="Shape"></path>
        </g>
      </g>
    </g>
  </symbol>


  <!-- Node Icon -->
  <symbol id="node" viewBox="0 0 256 292">
    <defs>
      <linearGradient id="a" x1="68.188%" x2="27.823%" y1="17.487%" y2="89.755%"><stop offset="0%" stop-color="#41873F"/><stop offset="32.88%" stop-color="#418B3D"/><stop offset="63.52%" stop-color="#419637"/><stop offset="93.19%" stop-color="#3FA92D"/><stop offset="100%" stop-color="#3FAE2A"/></linearGradient>
      <linearGradient id="c" x1="43.277%" x2="159.245%" y1="55.169%" y2="-18.306%"><stop offset="13.76%" stop-color="#41873F"/><stop offset="40.32%" stop-color="#54A044"/><stop offset="71.36%" stop-color="#66B848"/><stop offset="90.81%" stop-color="#6CC04A"/></linearGradient>
      <linearGradient id="f" x1="-4.389%" x2="101.499%" y1="49.997%" y2="49.997%"><stop offset="9.192%" stop-color="#6CC04A"/><stop offset="28.64%" stop-color="#66B848"/><stop offset="59.68%" stop-color="#54A044"/><stop offset="86.24%" stop-color="#41873F"/></linearGradient>
      <path id="b" d="M134.923 1.832c-4.344-2.443-9.502-2.443-13.846 0L6.787 67.801C2.443 70.244 0 74.859 0 79.745v132.208c0 4.887 2.715 9.502 6.787 11.945l114.29 65.968c4.344 2.444 9.502 2.444 13.846 0l114.29-65.968c4.344-2.443 6.787-7.058 6.787-11.945V79.745c0-4.886-2.715-9.501-6.787-11.944L134.923 1.832Z"/>
      <path id="e" d="M134.923 1.832c-4.344-2.443-9.502-2.443-13.846 0L6.787 67.801C2.443 70.244 0 74.859 0 79.745v132.208c0 4.887 2.715 9.502 6.787 11.945l114.29 65.968c4.344 2.444 9.502 2.444 13.846 0l114.29-65.968c4.344-2.443 6.787-7.058 6.787-11.945V79.745c0-4.886-2.715-9.501-6.787-11.944L134.923 1.832Z"/>
    </defs>
    <path fill="url(#a)" d="M134.923 1.832c-4.344-2.443-9.502-2.443-13.846 0L6.787 67.801C2.443 70.244 0 74.859 0 79.745v132.208c0 4.887 2.715 9.502 6.787 11.945l114.29 65.968c4.344 2.444 9.502 2.444 13.846 0l114.29-65.968c4.344-2.443 6.787-7.058 6.787-11.945V79.745c0-4.886-2.715-9.501-6.787-11.944L134.923 1.832Z"/>
    <mask id="d" fill="#fff"><use xlink:href="#b"/></mask>
    <path fill="url(#c)" d="M249.485 67.8 134.65 1.833c-1.086-.542-2.443-1.085-3.529-1.357L2.443 220.912c1.086 1.357 2.444 2.443 3.8 3.258l114.834 65.968c3.258 1.9 7.059 2.443 10.588 1.357L252.47 70.515c-.815-1.086-1.9-1.9-2.986-2.714Z" mask="url(#d)"/>
    <mask id="g" fill="#fff"><use xlink:href="#e"/></mask>
    <path fill="url(#f)" d="M249.756 223.898c3.258-1.9 5.701-5.158 6.787-8.687L130.579.204c-3.258-.543-6.787-.272-9.773 1.628L6.786 67.53l122.979 224.238c1.628-.272 3.529-.815 5.158-1.63l114.833-66.239Z" mask="url(#g)"/>
  </symbol>


  <!-- TypeScript Icon -->
  <symbol id="typescript" viewBox="0 0 256 256">
    <rect width="256" height="256" rx="20" fill="#3178C6"/>
    <path d="M150.518 200.475v27.62c4.492 2.302 9.805 4.028 15.938 5.179 6.133 1.151 12.597 1.726 19.393 1.726 6.622 0 12.914-.633 18.874-1.899 5.96-1.266 11.187-3.352 15.678-6.257 4.492-2.906 8.048-6.704 10.669-11.394 2.62-4.689 3.93-10.486 3.93-17.391 0-5.006-.749-9.394-2.246-13.163a30.748 30.748 0 0 0-6.479-10.055c-2.821-2.935-6.205-5.567-10.149-7.898-3.945-2.33-8.394-4.531-13.347-6.602-3.628-1.497-6.881-2.949-9.761-4.359-2.879-1.41-5.327-2.848-7.342-4.316-2.016-1.467-3.571-3.021-4.665-4.661-1.094-1.64-1.641-3.495-1.641-5.567 0-1.899.489-3.61 1.468-5.135s2.362-2.834 4.147-3.927c1.785-1.094 3.973-1.942 6.565-2.547 2.591-.604 5.471-.906 8.638-.906 2.304 0 4.737.173 7.299.518 2.563.345 5.14.877 7.732 1.597a53.669 53.669 0 0 1 7.558 2.719 41.7 41.7 0 0 1 6.781 3.797v-25.807c-4.204-1.611-8.797-2.805-13.778-3.582-4.981-.777-10.697-1.165-17.147-1.165-6.565 0-12.784.705-18.658 2.115-5.874 1.409-11.043 3.61-15.506 6.602-4.463 2.993-7.99 6.805-10.582 11.437-2.591 4.632-3.887 10.17-3.887 16.615 0 8.228 2.375 15.248 7.127 21.06 4.751 5.811 11.963 10.731 21.638 14.759a291.458 291.458 0 0 1 10.625 4.575c3.283 1.496 6.119 3.049 8.509 4.66 2.39 1.611 4.276 3.366 5.658 5.265 1.382 1.899 2.073 4.057 2.073 6.474a9.901 9.901 0 0 1-1.296 4.963c-.863 1.524-2.174 2.848-3.93 3.97-1.756 1.122-3.945 1.999-6.565 2.632-2.62.633-5.687.95-9.2.95-5.989 0-11.92-1.05-17.794-3.151-5.875-2.1-11.317-5.25-16.327-9.451Zm-46.036-68.733H140V109H41v22.742h35.345V233h28.137V131.742Z" fill="#FFF"/>
  </symbol>


  <!-- HTML Icon-->
  <symbol id="html" viewBox="0 0 452 520">
    <path fill="#e34f26" d="M41 460L0 0h451l-41 460-185 52" />
    <path fill="#ef652a" d="M226 472l149-41 35-394H226" />
    <path fill="#ecedee" d="M226 208h-75l-5-58h80V94H84l15 171h127zm0 147l-64-17-4-45h-56l7 89 117 32z"/>
    <path fill="#fff" d="M226 265h69l-7 73-62 17v59l115-32 16-174H226zm0-171v56h136l5-56z"/>
  </symbol>

  
  <!-- CSS Icon -->
  <symbol id="css" viewBox="0 0 1000 1000">
    <path fill="#639" d="M0 0h840a160 160 0 0 1 160 160v680a160 160 0 0 1-160 160H160A160 160 0 0 1 0 840V0Z"/>
    <path fill="#fff" d="M816.54 919.9c-32.39 0-57.16-9.42-74.5-28.35-17.15-19.03-26.08-46.18-26.88-81.64h69.8c.4 31.36 11.42 47.08 33.08 47.08 11.04 0 18.86-3.5 23.37-10.42 4.41-6.9 6.72-17.93 6.72-33.05 0-12.02-3.01-22.04-8.83-29.95a73.2 73.2 0 0 0-29.48-21.14L783.95 750c-23.06-11.02-39.81-24.04-50.14-39.27-10.03-15.13-15.04-36.36-15.04-63.5 0-30.36 8.83-55 26.37-73.94 18.05-18.93 42.62-28.34 74-28.34 30.3 0 53.76 9.31 70.3 27.84 16.85 18.64 25.67 45.28 26.38 80.14h-67.19c.4-11.4-1.9-22.72-6.72-33.06-3.8-7.6-11.23-11.41-22.26-11.41-19.65 0-29.48 11.71-29.48 35.05 0 11.83 2.4 21.04 7.22 28.05A65.18 65.18 0 0 0 822.76 689l24.77 10.92c25.57 11.72 44.02 26.05 55.35 43.38 11.43 17.23 17.05 40.27 17.05 69.12 0 34.56-9.03 61.1-27.38 79.63-18.25 18.53-43.62 27.85-76 27.85Zm-225.42 0c-32.4 0-57.16-9.42-74.51-28.35-17.15-19.03-26.07-46.18-26.87-81.64h69.79c.4 31.36 11.43 47.08 33.1 47.08 11.02 0 18.84-3.5 23.25-10.42 4.52-6.9 6.72-17.93 6.72-33.05 0-12.02-2.9-22.04-8.72-29.95a73.2 73.2 0 0 0-29.48-21.14L558.53 750c-23.07-11.02-39.81-24.04-50.14-39.27-10.03-15.13-15.04-36.36-15.04-63.5 0-30.36 8.82-55 26.37-73.94 18.05-18.93 42.62-28.34 74-28.34 30.29 0 53.75 9.31 70.2 27.84 17.05 18.64 25.77 45.28 26.47 80.14h-67.18c.4-11.4-1.9-22.72-6.72-33.06-3.81-7.6-11.23-11.41-22.26-11.41-19.66 0-29.49 11.71-29.49 35.05 0 11.83 2.41 21.04 7.22 28.05A65.18 65.18 0 0 0 597.33 689l24.77 10.92c25.57 11.72 44.02 26.05 55.36 43.38 11.33 17.23 17.04 40.27 17.04 69.12 0 34.56-9.12 61.1-27.37 79.63-18.25 18.53-43.62 27.85-76.01 27.85Zm-234.75 0c-31.7 0-56.86-8.62-75.51-25.85-18.65-17.12-27.88-42.87-27.88-76.93V648.83c0-33.85 9.83-59.5 29.48-77.13 19.96-17.43 46.13-26.24 78.52-26.24 31.39 0 56.15 9.01 74.5 26.84 18.56 17.93 27.88 44.58 27.88 80.14v13.32h-73.9v-12.92c0-13.72-3.01-23.84-8.83-30.45a26.46 26.46 0 0 0-21.66-10.32c-12.03 0-20.55 4.1-25.37 12.42a79.04 79.04 0 0 0-6.72 36.66v146.26c0 30.55 10.74 46.08 32.1 46.38 10.02 0 17.54-3.61 22.76-10.82a51.74 51.74 0 0 0 7.72-30.46V801.6h73.9v11.42c0 23.74-4.61 43.57-13.94 59.4a88.8 88.8 0 0 1-38.2 35.66 121.46 121.46 0 0 1-54.85 11.82Z"/>
  </symbol>


  <!-- Instagram Icon -->
  <symbol id="instagram" viewBox="0 0 256 256">
    <path fill="#fff" d="M128 23.064c34.177 0 38.225.13 51.722.745 12.48.57 19.258 2.655 23.769 4.408 5.974 2.322 10.238 5.096 14.717 9.575 4.48 4.479 7.253 8.743 9.575 14.717 1.753 4.511 3.838 11.289 4.408 23.768.615 13.498.745 17.546.745 51.723 0 34.178-.13 38.226-.745 51.723-.57 12.48-2.655 19.257-4.408 23.768-2.322 5.974-5.096 10.239-9.575 14.718-4.479 4.479-8.743 7.253-14.717 9.574-4.511 1.753-11.289 3.839-23.769 4.408-13.495.616-17.543.746-51.722.746-34.18 0-38.228-.13-51.723-.746-12.48-.57-19.257-2.655-23.768-4.408-5.974-2.321-10.239-5.095-14.718-9.574-4.479-4.48-7.253-8.744-9.574-14.718-1.753-4.51-3.839-11.288-4.408-23.768-.616-13.497-.746-17.545-.746-51.723 0-34.177.13-38.225.746-51.722.57-12.48 2.655-19.258 4.408-23.769 2.321-5.974 5.095-10.238 9.574-14.717 4.48-4.48 8.744-7.253 14.718-9.575 4.51-1.753 11.289-3.838 23.768-4.408 13.497-.615 17.545-.745 51.723-.745M128 0C93.237 0 88.878.147 75.226.77c-13.625.622-22.93 2.786-31.071 5.95-8.418 3.271-15.556 7.648-22.672 14.764C14.367 28.6 9.991 35.738 6.72 44.155 3.555 52.297 1.392 61.602.77 75.226.147 88.878 0 93.237 0 128c0 34.763.147 39.122.77 52.774.622 13.625 2.785 22.93 5.95 31.071 3.27 8.417 7.647 15.556 14.763 22.672 7.116 7.116 14.254 11.492 22.672 14.763 8.142 3.165 17.446 5.328 31.07 5.95 13.653.623 18.012.77 52.775.77s39.122-.147 52.774-.77c13.624-.622 22.929-2.785 31.07-5.95 8.418-3.27 15.556-7.647 22.672-14.763 7.116-7.116 11.493-14.254 14.764-22.672 3.164-8.142 5.328-17.446 5.95-31.07.623-13.653.77-18.012.77-52.775s-.147-39.122-.77-52.774c-.622-13.624-2.786-22.929-5.95-31.07-3.271-8.418-7.648-15.556-14.764-22.672C227.4 14.368 220.262 9.99 211.845 6.72c-8.142-3.164-17.447-5.328-31.071-5.95C167.122.147 162.763 0 128 0Zm0 62.27C91.698 62.27 62.27 91.7 62.27 128c0 36.302 29.428 65.73 65.73 65.73 36.301 0 65.73-29.428 65.73-65.73 0-36.301-29.429-65.73-65.73-65.73Zm0 108.397c-23.564 0-42.667-19.103-42.667-42.667S104.436 85.333 128 85.333s42.667 19.103 42.667 42.667-19.103 42.667-42.667 42.667Zm83.686-110.994c0 8.484-6.876 15.36-15.36 15.36-8.483 0-15.36-6.876-15.36-15.36 0-8.483 6.877-15.36 15.36-15.36 8.484 0 15.36 6.877 15.36 15.36Z"/>
  </symbol>

  
  <!-- X (Twitter) Icon -->
  <symbol id="x" viewBox="0 0 1200 1227">
    <path fill="#fff" d="M714.163 519.284 1160.89 0h-105.86L667.137 450.887 357.328 0H0l468.492 681.821L0 1226.37h105.866l409.625-476.152 327.181 476.152H1200L714.137 519.284h.026ZM569.165 687.828l-47.468-67.894-377.686-540.24h162.604l304.797 435.991 47.468 67.894 396.2 566.721H892.476L569.165 687.854v-.026Z"/>
  </symbol>


  <!-- YouTube Icon -->
  <symbol id="youtube" viewBox="0 0 256 180">
    <path d="M250.346 28.075A32.18 32.18 0 0 0 227.69 5.418C207.824 0 127.87 0 127.87 0S47.912.164 28.046 5.582A32.18 32.18 0 0 0 5.39 28.24c-6.009 35.298-8.34 89.084.165 122.97a32.18 32.18 0 0 0 22.656 22.657c19.866 5.418 99.822 5.418 99.822 5.418s79.955 0 99.82-5.418a32.18 32.18 0 0 0 22.657-22.657c6.338-35.348 8.291-89.1-.164-123.134Z" fill="red"/>
    <path fill="#FFF" d="m102.421 128.06 66.328-38.418-66.328-38.418z"/>
  </symbol>


  <!-- LinkedIn Icon -->
  <symbol id="linkedin" viewBox="0 0 256 256">
    <path d="M218.123 218.127h-37.931v-59.403c0-14.165-.253-32.4-19.728-32.4-19.756 0-22.779 15.434-22.779 31.369v60.43h-37.93V95.967h36.413v16.694h.51a39.907 39.907 0 0 1 35.928-19.733c38.445 0 45.533 25.288 45.533 58.186l-.016 67.013ZM56.955 79.27c-12.157.002-22.014-9.852-22.016-22.009-.002-12.157 9.851-22.014 22.008-22.016 12.157-.003 22.014 9.851 22.016 22.008A22.013 22.013 0 0 1 56.955 79.27m18.966 138.858H37.95V95.967h37.97v122.16ZM237.033.018H18.89C8.58-.098.125 8.161-.001 18.471v219.053c.122 10.315 8.576 18.582 18.89 18.474h218.144c10.336.128 18.823-8.139 18.966-18.474V18.454c-.147-10.33-8.635-18.588-18.966-18.453" fill="#0A66C2"/>
  </symbol>


  <!-- GitHub Icon -->
  <symbol id="github" viewBox="0 0 1024 1024">
    <path fill-rule="evenodd" clip-rule="evenodd" d="M8 0C3.58 0 0 3.58 0 8C0 11.54 2.29 14.53 5.47 15.59C5.87 15.66 6.02 15.42 6.02 15.21C6.02 15.02 6.01 14.39 6.01 13.72C4 14.09 3.48 13.23 3.32 12.78C3.23 12.55 2.84 11.84 2.5 11.65C2.22 11.5 1.82 11.13 2.49 11.12C3.12 11.11 3.57 11.7 3.72 11.94C4.44 13.15 5.59 12.81 6.05 12.6C6.12 12.08 6.33 11.73 6.56 11.53C4.78 11.33 2.92 10.64 2.92 7.58C2.92 6.71 3.23 5.99 3.74 5.43C3.66 5.23 3.38 4.41 3.82 3.31C3.82 3.31 4.49 3.1 6.02 4.13C6.66 3.95 7.34 3.86 8.02 3.86C8.7 3.86 9.38 3.95 10.02 4.13C11.55 3.09 12.22 3.31 12.22 3.31C12.66 4.41 12.38 5.23 12.3 5.43C12.81 5.99 13.12 6.7 13.12 7.58C13.12 10.65 11.25 11.33 9.47 11.53C9.76 11.78 10.01 12.26 10.01 13.01C10.01 14.08 10 14.94 10 15.21C10 15.42 10.15 15.67 10.55 15.59C13.71 14.53 16 11.53 16 8C16 3.58 12.42 0 8 0Z" transform="scale(64)" fill="#fff"/>
  </symbol>


  <!-- Strava Icon -->
  <symbol id="strava" width="512" height="512" style="enable-background:new 0 0 512 512"><path d="M226.172 26.001 90.149 288.345h80.141l55.882-104.309 55.433 104.309h79.511z" style="fill:#f50"/><path d="m361.116 288.345-39.441 79.241-40.07-79.241h-60.734l100.804 197.654 100.176-197.654z" style="fill:#ffaf8a"/></symbol>
  
  
  <!-- Twitch Icon -->
  <symbol id="twitch" viewBox="0 0 2400 2800">
    <path fill="#fff" d="m2200 1300-400 400h-400l-350 350v-350H600V200h1600z"/>
    <g fill="#9146ff">
      <path d="M500 0 0 500v1800h600v500l500-500h400l900-900V0H500zm1700 1300-400 400h-400l-350 350v-350H600V200h1600v1100z"/>
      <path d="M1700 550h200v600h-200zm-550 0h200v600h-200z"/>
    </g>
  </symbol>


  <!-- Verified Icon -->
  <symbol id="verified" viewBox="0 0 20 20">
    <path fill-rule="evenodd" d="M10 18a8 8 0 100-16 8 8 0 000 16zm3.707-8.707a1 1 0 00-1.414-1.414L9 11.172l-1.293-1.293a1 1 0 00-1.414 1.414l2 2a1 1 0 001.414 0l4-4z" clip-rule="evenodd" />
  </symbol>

  <!-- Tailwind CSS Icon-->
  <symbol id="tailwindcss" viewBox="0 0 256 154">
    <!-- Fondo azul Tailwind -->
    <rect width="256" height="154" fill="#38BDF8" rx="24" />
    
    <!-- Logo de Tailwind (versión simplificada y oficial) -->
    <path
      d="M128 38.4c-18.13 0-30.93 9.07-38.4 27.2 7.47-9.07 15.47-12.8 24-11.2 5.2 1.03 8.97 4.75 13.47 9.41 7.01 7.18 15.18 15.59 31.93 15.59 18.13 0 30.93-9.07 38.4-27.2-7.47 9.07-15.47 12.8-24 11.2-5.2-1.03-8.97-4.75-13.47-9.41-7.01-7.18-15.18-15.59-31.93-15.59Zm-64 38.4c-18.13 0-30.93 9.07-38.4 27.2 7.47-9.07 15.47-12.8 24-11.2 5.2 1.03 8.97 4.75 13.47 9.41 7.01 7.18 15.18 15.59 31.93 15.59 18.13 0 30.93-9.07 38.4-27.2-7.47 9.07-15.47 12.8-24 11.2-5.2-1.03-8.97-4.75-13.47-9.41-7.01-7.18-15.18-15.59-31.93-15.59Z"
      fill="white"
    />
  </symbol>


  <!-- JavaScript -->
    <symbol id="javascript" viewBox="0 0 256 256">
        <!-- Fondo amarillo JS -->
        <rect width="256" height="256" fill="#F7DF1E" rx="32" ry="32"/>

        <!-- Letras "JS" en negro, en la esquina inferior derecha -->
        <text x="94%" y="90%" 
            fill="#000" 
            font-size="150" 
            font-family="Arial, sans-serif" 
            font-weight="bold" 
            text-anchor="end" 
            dominant-baseline="bottom">
            JS
        </text>
    </symbol>



    <!-- HERO UI  (Antes NextUI)-->
    <symbol id="heroui" viewBox="0 0 256 256">
        <!-- Fondo negro -->
        <rect width="256" height="256" fill="#000" rx="32" ry="32"/>
  
        <!-- Texto blanco "UI" centrado y grande -->
        <text x="50%" y="50%" fill="#fff" font-size="160" font-family="Arial, sans-serif" dominant-baseline="middle" text-anchor="middle">UI</text>
    </symbol>



  <!-- PostgreSQL -->
    <symbol id="postgresql" stroke="none" stroke-width="1" fill="none" fill-rule="evenodd">
        <a id="container" transform="translate(2, 2)" fill="#081f2e" fill-rule="nonzero" stroke="#091E2E" stroke-width="2">
            <rect id="mask" x="10" y="10" width="110" height="110" rx="14"></rect>
        </a>
        <a id="postgresql-original" transform="translate(20, 25) scale(1.5)" fill-rule="nonzero">
            <path d="M37.1548522,37.2802062 C37.4796143,34.5774409 37.3823925,34.1806933 39.3955038,34.6188119 L39.9064353,34.6634925 C41.4545369,34.7338232 43.4796457,34.4144393 44.6694747,33.8617232 C47.2307513,32.6731353 48.7490658,30.6893974 46.2241957,31.2102579 C40.4637022,32.3988458 40.067782,30.4482047 40.067782,30.4482047 C46.1505554,21.4231281 48.693215,9.96626607 46.4980715,7.16172818 C40.5116925,-0.487349997 30.1495063,3.12971369 29.9761619,3.22321208 L29.9207248,3.23355482 C28.7826095,2.9973266 27.5087974,2.8562516 26.0777757,2.83308385 C23.470991,2.79005805 21.493045,3.51653224 19.99252,4.65423384 C19.99252,4.65423384 1.50673064,-2.96174756 2.36683305,14.2320265 C2.54969273,17.8896338 7.60936205,41.9083764 13.6445588,34.6535635 C15.8504588,32.0008571 17.981891,29.7577232 17.981891,29.7577232 C19.0401604,30.460616 20.3077668,30.8197159 21.6366023,30.6906385 L21.739616,30.6029321 C21.7073466,30.932245 21.7214128,31.2545248 21.7805733,31.6359651 C20.226266,33.3731321 20.6830015,33.6780361 17.5748007,34.3176313 C14.4297798,34.9655006 16.2774072,36.1193369 17.4833709,36.4209312 C18.9458346,36.7866506 22.3287386,37.3046151 24.6148982,34.1049845 L24.5238821,34.4698764 C25.1336902,34.9580538 25.0927329,37.9768933 25.1787845,40.1335619 C25.2652499,42.2906441 25.4096345,44.3033417 25.8494079,45.4902747 C26.2891813,46.6767941 26.8079732,49.7332812 30.8929426,48.8578715 C34.3068748,48.1280876 36.9169691,47.0751965 37.1548522,37.2802062" id="Shape" fill="#000000">
            </path>
            <path d="M29.562866,50.9921997 C27.7561958,50.9921997 26.5796055,50.2934441 25.8651289,49.6186836 C24.7865878,48.6009578 24.358812,47.2899118 24.1031394,46.5067594 L23.9926789,46.1799288 C23.4780241,44.7906917 23.3034386,42.7904054 23.2000112,40.214649 C23.1842902,39.8278304 23.1735337,39.429428 23.1615362,39.0070304 C23.1528483,38.6979893 23.1420918,38.3103433 23.1263708,37.9049078 C22.4838797,38.2118804 21.7971216,38.4303191 21.0735434,38.5536046 C19.7997313,38.7712159 18.4303523,38.7008853 17.0026402,38.3438538 C15.9952572,38.0919046 14.9485717,37.569803 14.3520023,36.7634828 C12.6131806,38.2863482 10.9546185,38.079907 10.0510766,37.7783127 C8.45705318,37.2466957 7.03058222,35.7527901 5.68974916,33.212199 C4.73449352,31.4022192 3.81067982,29.044074 2.94354434,26.202716 C1.43350402,21.2547483 0.474111288,16.0432475 0.388887094,14.3321443 C0.120803225,8.97667253 1.56258144,5.14654836 4.67326449,2.94933627 C9.58027494,-0.516723384 17.0150515,1.52162418 19.7256773,2.44709273 C21.5468273,1.34952096 23.6894297,0.815421769 26.1104587,0.853896769 C27.4107482,0.874995963 28.6489813,0.989179833 29.7990942,1.19437983 C30.9988522,0.817076608 33.3685813,0.275530644 36.0812756,0.309454837 C41.0793022,0.36902903 45.2209497,2.31677418 48.057757,5.94211206 C50.0824521,8.52862495 49.0812747,13.9602193 48.3047417,16.9678886 C47.2117207,21.1984837 45.2966586,25.6979902 42.9443054,29.6149934 C43.5830731,29.6195442 44.5085417,29.5430079 45.8241384,29.2712006 C48.4197529,28.7354466 49.1789102,30.127166 49.3849376,30.7502127 C50.2102884,33.2498466 46.6225981,35.138845 45.5035134,35.6584643 C44.0695957,36.3241232 41.7317223,36.7295587 39.817074,36.6418522 L39.7335046,36.636474 L39.2304336,36.592207 L39.1807885,37.0117087 L39.1327982,37.4216949 C39.0041344,42.3857973 38.2950361,45.5295772 36.835882,47.6068134 C35.3063974,49.7845812 33.1807571,50.3948029 31.3083071,50.7961013 C30.6695393,50.9326255 30.0891047,50.9921997 29.562866,50.9921997 Z M25.760874,32.9250845 C26.9271216,33.8584135 27.0293079,35.6146111 27.1207377,38.8965699 C27.1323216,39.3061425 27.1430781,39.6937885 27.1575579,40.0557844 C27.2014111,41.1521151 27.3044248,43.7191836 27.7065506,44.8039304 C27.7632289,44.9574167 27.8141152,45.1129715 27.8678974,45.2780417 C28.315945,46.649903 28.5405893,47.3379021 30.4779918,46.9237788 C32.1042845,46.5750215 32.9403917,46.262257 33.5948804,45.3305828 C34.545999,43.9760973 35.0780296,41.2514054 35.1756651,37.2322159 L37.1544385,37.2802062 L35.1893175,37.0443917 L35.2472369,36.553732 C35.4354748,34.9361272 35.5711716,33.7678111 36.6521949,32.9950014 C37.5197441,32.3752643 38.5080965,32.4352522 39.2953861,32.5771546 C38.4303191,31.9234934 38.1911949,31.1568893 38.1274836,30.84247 L37.9624135,30.0295305 L38.426182,29.3415313 C41.0975054,25.3781926 43.3000957,20.5071749 44.4700667,15.9770539 C45.672307,11.3224064 45.3057602,8.85049108 44.9392134,8.38299914 C40.0868127,2.18273225 31.6723716,4.74276771 30.7936522,5.03319191 L30.6451305,5.11345158 L29.9004531,5.25204432 L29.5190127,5.17302578 C28.4673627,4.95458707 27.2990466,4.83378384 26.0467474,4.81351207 C24.0791442,4.78041529 22.4917402,5.24542497 21.1902096,6.23294996 L20.2870813,6.91763948 L19.2391547,6.48614028 C17.000158,5.57060077 10.423829,3.73000643 6.95363222,6.18785561 C5.02739997,7.55227012 4.14992175,10.225662 4.34519272,14.1339773 C4.40973143,15.4243378 5.28638223,20.3090079 6.73271125,25.0463974 C8.73134269,31.593353 10.5475282,33.7682248 11.305858,34.0210014 C11.4382451,34.0656821 11.7816241,33.7988393 12.1233483,33.3884393 C14.3449693,30.7162885 16.458612,28.4884619 16.5475596,28.3949635 L17.6935354,27.1889998 L19.0790491,28.1095039 C19.6375571,28.4806014 20.2535708,28.6911797 20.8861329,28.7308958 L24.1904321,25.9127055 L23.71177,30.7977893 C23.7010136,30.9074224 23.6956353,31.0567716 23.7386612,31.3339571 L23.8826321,32.2598393 L23.2579305,32.9581813 L23.185945,33.0392684 L25.0013031,33.8770304 L25.760874,32.9250845 Z" id="Shape" fill="#081f2e">
            </path>
            <path d="M46.2241957,31.2102579 C40.4632885,32.3988458 40.0673683,30.4482047 40.0673683,30.4482047 C46.1501417,21.4227144 48.6928013,9.96543865 46.4984852,7.16172818 C40.5121062,-0.486936287 30.1490926,3.1301274 29.9761619,3.2240395 L29.9203111,3.23396853 C28.7821958,2.99774031 27.5083837,2.85707902 26.0765345,2.83391127 C23.4697499,2.79129918 21.4926313,3.51735966 19.9921063,4.65506126 C19.9921063,4.65506126 1.50590322,-2.96050643 2.36559192,14.2328539 C2.5484516,17.8908749 7.60812092,41.9096175 13.6433177,34.6548046 C15.8492176,32.0020982 17.9802362,29.7589643 17.9802362,29.7589643 C19.0389192,30.4618571 20.306112,30.8209571 21.6345337,30.6918797 L21.7379612,30.6041732 C21.7056918,30.9334861 21.7205854,31.2557659 21.7793321,31.6372063 C20.2246112,33.3743732 20.6813467,33.6792772 17.5731459,34.3188724 C14.4281249,34.9667417 16.2757523,36.120578 17.4821297,36.4221724 C18.9441797,36.7878917 22.3274975,37.3058562 24.6132434,34.1062256 L24.5218136,34.4711175 C25.1312079,34.959295 25.5589837,37.6450982 25.4874119,40.0797796 C25.4154265,42.514461 25.3674361,44.1862618 25.8477531,45.4919296 C26.3276563,46.7975973 26.8059047,49.734936 30.8917014,48.8595263 C34.3056337,48.1280876 36.0746562,46.2320562 36.3212272,43.0696594 C36.4958127,40.8211473 36.8909054,41.1537699 36.9161417,39.1435546 L37.233457,38.1920224 C37.5991764,35.1442232 37.2913764,34.161249 39.3950901,34.6183982 L39.9060215,34.6630788 C41.4541231,34.7334095 43.4800594,34.4140256 44.6694747,33.8613095 C47.2303376,32.673549 48.7490658,30.6893974 46.2241957,31.2102579 Z" id="Shape" fill="#336791">
            </path>
            <path d="M29.7693071,49.7721699 C26.363649,49.7721699 25.2846942,47.0751965 24.843266,45.9722465 C24.1970515,44.3558828 24.0576313,38.0832167 24.2016023,32.9391506 C24.2115313,32.5746724 24.5135394,32.2867305 24.8800861,32.2979006 C25.2445644,32.3078296 25.5316789,32.6114926 25.5213361,32.9759708 C25.3554386,38.9089812 25.5908394,44.2855522 26.0690878,45.4820005 C26.81542,47.3474175 27.9473297,48.9790884 31.147374,48.2935715 C34.1852442,47.6419788 35.3229458,46.490211 35.8297401,43.5524586 C36.2186272,41.2981546 36.9877135,34.8848272 37.082453,33.6192893 C37.1097578,33.2560522 37.4250046,32.9825901 37.7898966,33.0103087 C38.1531336,33.0376135 38.4257683,33.3545151 38.3988772,33.7177522 C38.3000006,35.0354175 37.5346377,41.4363336 37.130857,43.777103 C36.5326329,47.246886 34.9857724,48.8206376 31.4241458,49.5843457 C30.8188885,49.7138368 30.2690684,49.7717562 29.7693071,49.7721699 Z M11.302962,36.5992401 C10.9781999,36.5992401 10.6832249,36.5392522 10.4275524,36.4544417 C8.21544673,35.7163837 6.10842335,32.1137998 4.1648153,25.7455668 C2.6853895,20.8981305 1.74792338,15.8384612 1.66559515,14.1939652 C1.42192015,9.31881043 2.67711531,5.86971287 5.39725642,3.94306691 C10.7783782,0.130318548 19.8307596,3.76103466 20.213441,3.91741691 C20.5506144,4.05518223 20.7127886,4.44075965 20.5746096,4.77834675 C20.4368442,5.11552013 20.0512668,5.27728061 19.7140934,5.139929 C19.6268007,5.10434997 10.9463443,1.62670644 6.1576548,5.02202174 C3.83177901,6.67106851 2.76399434,9.73500236 2.98367418,14.1281854 C3.05276369,15.5136991 3.92858707,20.4517378 5.42704352,25.3599894 C7.16214189,31.0451877 9.13677817,34.6324643 10.8449854,35.2021425 C11.1130693,35.2915038 11.9289048,35.5633111 13.0951523,34.1608353 C15.2898822,31.5205401 17.3058894,29.4131031 17.3261612,29.3924176 C17.5785241,29.1292982 17.9963709,29.1206103 18.2594902,29.3729732 C18.5226096,29.6253361 18.5317112,30.0431829 18.2793483,30.3058885 C18.2594902,30.326574 16.2740975,32.4021555 14.1103959,35.0052167 C13.085637,36.2376579 12.1034903,36.5992401 11.302962,36.5992401 Z M40.0264111,31.0369135 C39.8994022,31.0369135 39.7711522,31.0005071 39.6577957,30.9243845 C39.3557877,30.7204256 39.275528,30.3104393 39.4794869,30.0080176 C45.6284538,20.8836507 47.7867771,9.85870156 45.9383223,7.49641931 C43.6116191,4.52350159 40.3263506,2.97084918 36.1731191,2.88107418 C33.0980151,2.81488063 30.6538184,3.60010159 30.2541748,3.73703949 L30.1536434,3.77799675 C29.7519313,3.9041782 29.4437176,3.68408466 29.3274652,3.42675724 C29.1896998,3.12226692 29.3026426,2.7623395 29.588516,2.58899515 C29.6075466,2.57782498 29.6679482,2.55217499 29.7659974,2.51618224 L29.7573095,2.5186645 L29.7659974,2.51576853 C30.444895,2.26712902 32.9263256,1.52286531 35.9997748,1.55803064 C40.5952619,1.60684838 44.3914618,3.37876692 46.9771473,6.68306609 C48.2004868,8.24647495 48.2033828,11.8482314 46.9850078,16.5653491 C45.7430513,21.3747241 43.4060054,26.543199 40.573749,30.7460756 C40.4471538,30.9351409 40.2386441,31.0369135 40.0264111,31.0369135 Z M40.3408304,35.2608893 C39.2908353,35.2608893 38.3496457,35.1127812 37.7861732,34.7751942 C37.2069796,34.4280917 37.0965191,33.9564627 37.0820393,33.7061684 C36.9240022,30.9301764 38.4555554,30.4469635 39.2366393,30.2264563 C39.1278336,30.0617998 38.9731062,29.8681837 38.8130006,29.6683619 C38.3575062,29.0990974 37.733632,28.3196684 37.2529014,27.1538345 C37.1776062,26.9718023 36.9417917,26.5485773 36.6687433,26.0583313 C35.1880764,23.4031426 32.1071805,17.8780499 34.0863675,15.0486894 C35.0023208,13.7392983 36.8263667,13.2238161 39.5138248,13.5113443 C38.7232256,11.1027265 34.9584675,3.56824595 26.0252345,3.42179272 C23.3386039,3.37711208 21.1351862,4.2032903 19.47952,5.87509109 C15.7726814,9.61874994 15.9067233,16.3924185 15.9087918,16.4602668 C15.9183072,16.8247451 15.6307789,17.1279943 15.2663007,17.1375096 C14.9018225,17.1490934 14.598987,16.8594967 14.589058,16.4950185 C14.5807838,16.1942515 14.4426048,9.08589188 18.5416402,4.94589916 C20.460012,3.00849676 22.9852958,2.05199999 26.0471611,2.10205886 C31.7621466,2.19597095 35.440853,5.101454 37.5201578,7.52206931 C39.7868732,10.1602959 40.8980973,13.0703298 40.9895272,14.0417201 C41.0577893,14.7640572 40.5394111,14.9084418 40.4347425,14.9299548 L40.1964457,14.935333 C37.5590466,14.5129354 35.866974,14.8062556 35.1673909,15.8057781 C33.6619014,17.9574822 36.5764861,23.1838765 37.8209248,25.4158402 C38.1386538,25.9851047 38.367849,26.3967458 38.4729312,26.6507636 C38.8816764,27.6420119 39.4149482,28.3080845 39.8431377,28.8434248 C40.2200272,29.3142264 40.5464441,29.7225579 40.6631102,30.2016337 C40.7173062,30.2967869 41.4863925,31.4344885 46.0500239,30.4924716 C47.1939312,30.2566571 47.8798618,30.4581337 48.0896126,31.0923506 C48.5020812,32.3396853 46.1877892,33.7947022 44.9065304,34.3896167 C43.758486,34.9233022 41.9261659,35.2608893 40.3408304,35.2608893 Z M38.3980498,33.5973627 C38.5428482,33.7434022 39.2672538,33.9953514 40.7673651,33.9308127 C42.1011651,33.8737208 43.507778,33.5837103 44.3517457,33.1919272 C45.4311143,32.6905111 46.1517965,32.1299345 46.5249626,31.747253 L46.3181078,31.7853143 C43.4002135,32.3876756 41.3362159,32.3074159 40.1836207,31.5466038 C40.1012925,31.4924079 40.0272385,31.4361434 39.9602175,31.3807063 C39.8352772,31.4299377 39.7198522,31.4622071 39.637524,31.4853748 C38.9838627,31.6686482 38.3078611,31.8585409 38.3980498,33.5973627 Z M19.5486096,37.2855845 C18.8237902,37.2855845 18.0609096,37.1867078 17.2818943,36.9918506 C16.4747467,36.7899603 15.1140556,36.1822208 15.134741,35.1839393 C15.1583225,34.0640272 16.7870975,33.728095 17.4002152,33.6019135 C19.6152168,33.1455917 19.7596015,32.9627321 20.4517378,32.083599 C20.6536281,31.8275127 20.9047499,31.5085426 21.2473015,31.1262748 C21.7557507,30.5570103 22.3113628,30.2686547 22.8988305,30.2686547 C23.3079894,30.2686547 23.6435079,30.4072474 23.8652563,30.4995047 C24.5718724,30.7924111 25.1614087,31.5006821 25.4038426,32.3475458 C25.622695,33.1116675 25.5180265,33.8472434 25.1101087,34.4185764 C23.7709305,36.2939224 21.8475942,37.2855845 19.5486096,37.2855845 Z M16.5607983,35.2406175 C16.7597926,35.3945175 17.1586088,35.6001312 17.6025193,35.7110054 C18.2772797,35.879799 18.9317684,35.9654369 19.5490233,35.9654369 C21.4297475,35.9654369 22.9397878,35.1868353 24.0365321,33.651145 C24.2653136,33.3309337 24.1966378,32.9242571 24.1354087,32.7103692 C24.0071587,32.2623216 23.6886023,31.8548176 23.3605305,31.7187071 C23.1826353,31.6450668 23.034941,31.5888022 22.8992442,31.5888022 C22.8264313,31.5888022 22.6046829,31.5888022 22.2315168,32.0062353 C21.91627,32.3583022 21.6891434,32.6466579 21.4893216,32.9006756 C20.6271507,33.9953514 20.2320579,34.3668627 17.667058,34.89517 C17.0411152,35.02342 16.7200765,35.1541522 16.5607983,35.2406175 Z M21.6366023,32.1957143 C21.316391,32.1957143 21.0350684,31.9619684 20.9850096,31.6355514 C20.9684612,31.5259184 20.9577047,31.4158716 20.9519128,31.3049974 C19.2705967,31.2735555 17.648441,30.5520458 16.4168273,29.2670635 C14.8596241,27.6424256 14.1509394,25.3914313 14.4728056,23.0916192 C14.8223902,20.5940539 14.691658,18.3893951 14.6213273,17.2049443 C14.601883,16.8756314 14.5878169,16.6377483 14.5886443,16.4730918 C14.5898854,16.2641685 14.5940225,15.7102112 16.445787,14.7715039 C17.1044128,14.4376402 18.4249741,13.855137 19.8675797,13.7057878 C22.2575805,13.4588031 23.832987,14.5232781 24.304616,16.7035281 C25.5776007,22.5897894 24.4055611,25.1932644 23.5495958,27.094674 C23.3903176,27.4488095 23.2397273,27.7830869 23.1193378,28.1070216 L23.0130144,28.3924813 C22.5608297,29.6050643 22.1698741,30.6525772 22.2898499,31.4349022 C22.345287,31.7952434 22.0978886,32.132003 21.7375475,32.1874401 L21.6366023,32.1957143 Z M15.9129289,16.6559515 L15.9385789,17.1271668 C16.0113918,18.3575394 16.1470886,20.6470088 15.7797144,23.2748926 C15.5145265,25.1717515 16.0937201,27.0231023 17.3696007,28.3535926 C18.3778112,29.4052426 19.7045781,29.9856772 21.0681652,29.9856772 L21.0962975,29.9856772 C21.2489563,29.3423587 21.5025604,28.6630474 21.7756087,27.931195 L21.8811047,27.6473902 C22.0172152,27.2816708 22.1764934,26.9275353 22.345287,26.5527144 C23.1689829,24.7224628 24.1945692,22.4441636 23.0134281,16.9827822 C22.7796821,15.9009314 22.2124862,15.2749886 21.2803983,15.0685475 C19.3657499,14.6457362 16.5123943,16.0858596 15.9129289,16.6559515 Z M19.8969531,16.3758701 C19.8638563,16.6092023 20.3243152,17.2322491 20.9250217,17.3154047 C21.524487,17.3993878 22.037487,16.9120378 22.07017,16.6787055 C22.1028531,16.4453733 21.6428079,16.1880459 21.0421015,16.1044765 C20.4418088,16.0209072 19.9288088,16.1425378 19.8969531,16.3758701 Z M21.062787,17.5450136 L20.8944071,17.5334297 C20.5220684,17.481716 20.1455926,17.2471426 19.8878515,16.9054184 C19.7972491,16.7854426 19.6495547,16.5529378 19.6789281,16.3452555 C19.7207128,16.0407652 20.0922241,15.8583193 20.6718313,15.8583193 C20.8013225,15.8583193 20.9361918,15.8678346 21.0718886,15.8868652 C21.3887902,15.9307185 21.6829378,16.0221483 21.9001354,16.1433652 C22.2766112,16.3535297 22.3043297,16.5881031 22.2873676,16.7093201 C22.2410321,17.045666 21.7061055,17.5450136 21.062787,17.5450136 Z M20.1158055,16.4147588 C20.1344225,16.5587297 20.4910402,17.0336684 20.9552225,17.0977934 L21.0632007,17.1052402 C21.4918039,17.1052402 21.8120152,16.7680668 21.8496628,16.6576064 C21.8099466,16.5823112 21.534416,16.3953144 21.0119007,16.3225015 C20.896062,16.3059531 20.7818781,16.2980926 20.672245,16.2980926 C20.3363128,16.2980926 20.1580039,16.3738015 20.1158055,16.4147588 Z M38.1556159,15.8996902 C38.188299,16.1330225 37.7282538,16.7560693 37.1279611,16.8396386 C36.528082,16.923208 36.0146683,16.4362717 35.9815716,16.2029394 C35.9501296,15.9696072 36.4101748,15.711866 37.0100538,15.6287104 C37.6099328,15.5447273 38.1225191,15.6667717 38.1556159,15.8996902 Z M36.9893683,16.958787 C36.4118296,16.958787 35.9133095,16.5094983 35.8723522,16.217833 C35.8247756,15.8678346 36.4010732,15.6018193 36.9943328,15.519491 C37.1250651,15.5012878 37.2545562,15.4921862 37.3790828,15.4921862 C37.8912554,15.4921862 38.2304974,15.6423628 38.2644216,15.8847967 C38.2863482,16.0415926 38.1659586,16.2836128 37.9586901,16.5020515 C37.8217522,16.6456088 37.534224,16.8942483 37.1424409,16.9484443 L36.9893683,16.958787 Z M37.3794966,15.7122797 C37.2653127,15.7122797 37.1461643,15.7209677 37.0253611,15.737516 C36.4292054,15.8206717 36.0734151,16.0597959 36.0907909,16.1880459 C36.110649,16.3291209 36.4912619,16.7391072 36.989782,16.7391072 L37.1126538,16.7304193 C37.4382433,16.6853249 37.6827457,16.4726781 37.7994119,16.3502201 C37.9826853,16.1578451 38.0554982,15.9766402 38.0468103,15.9149975 C38.0352264,15.833083 37.8151328,15.7122797 37.3794966,15.7122797 Z M39.0198554,29.2997466 C38.893674,29.2997466 38.7662514,29.2633402 38.6533086,29.188045 C38.3504732,28.9853272 38.2689724,28.575341 38.4721038,28.2725055 C39.8778893,26.1729289 39.6205619,24.0319813 39.3719224,21.9613644 C39.265599,21.0793354 39.1563796,20.1671055 39.1845119,19.2916959 C39.2134715,18.3910499 39.3280691,17.6480273 39.4385296,16.9294136 C39.5696756,16.0779991 39.6937885,15.2737475 39.6424885,14.3189056 C39.6226304,13.954841 39.9018844,13.6441451 40.265949,13.624287 C40.6312546,13.6048427 40.9411231,13.883683 40.9605675,14.2477475 C41.0193143,15.3391136 40.8790667,16.2492749 40.7433699,17.1300628 C40.6387014,17.8097878 40.5303094,18.5126805 40.5042457,19.3338942 C40.4790094,20.1091862 40.5778861,20.9324684 40.6825546,21.803741 C40.9473288,24.0055039 41.2472683,26.5010007 39.5692619,29.0068402 C39.4418393,29.1967329 39.2329159,29.2997466 39.0198554,29.2997466 Z" id="Shape" fill="#FFFFFF">
            </path>
        </a>
    </symbol>


  <!-- MongoDB -->
    <symbol id="mongodb" viewBox="0 0 256 256">
        <!-- Fondo: círculo azul marino -->
        <circle cx="128" cy="128" r="128" fill="#001F3F" />

        <!-- Mitad izquierda de la hoja (verde claro) -->
        <path    
        fill="#00C853" 
        d="M128 48c-8 16-24 52-24 80 0 30 16 64 24 80V48z"
        />

        <!-- Mitad derecha de la hoja (verde oscuro) -->
        <path 
        fill="#006B2D" 
        d="M128 48c8 16 24 52 24 80 0 30-16 64-24 80V48z"
        />
        <!-- Tallo izquierdo (verde claro) -->
        <rect x="126" y="208" width="2" height="12" fill="#00C853" />
        <!-- Tallo derecho (verde oscuro) -->
        <rect x="128" y="208" width="2" height="12" fill="#006B2D" />
    </symbol>


  <!-- Git Bash -->
    <symbol id="git" viewBox="0 0 64 64">
        <!-- Rombo naranja -->
        <rect
        x="8"
        y="8"
        width="48"
        height="48"
        fill="#F05032"
        transform="rotate(45 32 32)"
        />

        <!-- Círculos blancos -->
        <circle cx="32" cy="18" r="6" fill="#fff" />
        <circle cx="44" cy="38" r="6" fill="#fff" />
        <circle cx="20" cy="44" r="6" fill="#fff" />

        <!-- Líneas blancas conectando los nodos -->
        <line x1="32" y1="24" x2="44" y2="38" stroke="#fff" stroke-width="4" />
        <line x1="32" y1="24" x2="20" y2="44" stroke="#fff" stroke-width="4" />
        <line x1="32" y1="18" x2="18" y2="10" stroke="#fff" stroke-width="4" stroke-linecap="round" />
    </symbol>

</svg>
